<?xml version="1.0" encoding="utf-8"?>
<!-- Generator: Adobe Illustrator 24.1.0, SVG Export Plug-In . SVG Version: 6.00 Build 0)  -->
<svg version="1.1" id="Layer_1" xmlns="http://www.w3.org/2000/svg" xmlns:xlink="http://www.w3.org/1999/xlink" x="0px" y="0px"
	 viewBox="0 0 16 16" style="enable-background:new 0 0 16 16;" xml:space="preserve">
<style type="text/css">
	.st0{fill-rule:evenodd;clip-rule:evenodd;fill:#FFFFFF;}
</style>
<path class="st0" d="M12.5,15c-0.28,0-0.5-0.22-0.5-0.5v-13C12,1.22,12.22,1,12.5,1S13,1.22,13,1.5v13C13,14.78,12.78,15,12.5,15z
	 M10,8c0,0.28-0.22,0.5-0.5,0.5H3.71l2.15,2.15c0.2,0.2,0.2,0.51,0,0.71s-0.51,0.2-0.71,0l-3-3c-0.2-0.2-0.2-0.51,0-0.71
	c0,0,0,0,0,0l3-3c0.2-0.2,0.51-0.2,0.71,0s0.2,0.51,0,0.71L3.71,7.5H9.5C9.78,7.5,10,7.72,10,8z"/>
</svg>
