<?xml version="1.0" encoding="utf-8"?>
<!-- Generator: Adobe Illustrator 23.0.3, SVG Export Plug-In . SVG Version: 6.00 Build 0)  -->
<svg version="1.1" id="Layer_1" xmlns:svgjs="http://svgjs.com/svgjs"
	 xmlns="http://www.w3.org/2000/svg" xmlns:xlink="http://www.w3.org/1999/xlink" x="0px" y="0px" viewBox="0 0 512 512"
	 style="enable-background:new 0 0 512 512;" xml:space="preserve">
<style type="text/css">
	.st0{fill:#093964;}
	.st1{fill:#78C2AD;}
	.st2{fill:#F3969A;}
</style>
<g id="SvgjsG1001">
	<path class="st0" d="M506,464.8V27.2c0-11-9-20-20-20H26c-11,0-20,9-20,20v437.6c0,10.3,7.9,18.8,17.9,19.9l-2.9,2.9
		c-3.9,3.9-3.9,10.2,0,14.1l3.5,3.5c3.9,3.9,10.2,3.9,14-0.1l20.3-20.3h6.6c0,2.5,1,5,2.9,6.9l3.5,3.5c3.9,3.9,10.3,3.9,14.2,0
		l10.4-10.4h331.3l10.4,10.4c3.8,3.9,10.2,3.9,14.1,0l3.5-3.5c1.9-1.9,2.9-4.4,2.9-6.9h6.6l20.3,20.3c3.8,4,10.1,4,14,0.1l3.5-3.5
		c3.9-3.9,3.9-10.2,0-14.1l-6-6.1C502.4,478,506,471.8,506,464.8z"/>
	<g>
		<path class="st1" d="M474,472.3H364c-11,0-20-9-20-20v-410c0-11,9-20,20-20h110c11,0,20,9,20,20v410
			C494,463.3,485,472.3,474,472.3z"/>
		<path class="st0" d="M390.6,291.3L390.6,291.3c-11,0-20-9-20-20v-48c0-11,9-20,20-20l0,0c11,0,20,9,20,20v48
			C410.6,282.4,401.6,291.3,390.6,291.3z"/>
	</g>
	<g>
		<path class="st2" d="M311,472.3H201c-11,0-20-9-20-20v-410c0-11,9-20,20-20h110c11,0,20,9,20,20v410
			C331,463.3,322,472.3,311,472.3z"/>
		<path class="st0" d="M227.6,291.3L227.6,291.3c-11,0-20-9-20-20v-48c0-11,9-20,20-20l0,0c11,0,20,9,20,20v48
			C247.6,282.4,238.6,291.3,227.6,291.3z"/>
	</g>
	<g>
		<path class="st2" d="M148,84.8H38c-11,0-20-9-20-20V42.3c0-11,9-20,20-20h110c11,0,20,9,20,20v22.5C168,75.9,159,84.8,148,84.8z"
			/>
		<path class="st1" d="M148,159.4H38c-11,0-20-9-20-20v-22.5c0-11,9-20,20-20h110c11,0,20,9,20,20v22.5
			C168,150.4,159,159.4,148,159.4z"/>
		<path class="st2" d="M148,233.9H38c-11,0-20-9-20-20v-22.5c0-11,9-20,20-20h110c11,0,20,9,20,20v22.5C168,225,159,233.9,148,233.9
			z"/>
		<path class="st1" d="M148,472.3H38c-11,0-20-9-20-20V266c0-11,9-20,20-20h110c11,0,20,9,20,20v186.3
			C168,463.3,159,472.3,148,472.3z"/>
		<path class="st0" d="M49,281.3v-5c0-5.5,4.5-10,10-10h68c5.5,0,10,4.5,10,10v5c0,5.5-4.5,10-10,10H59
			C53.5,291.3,49,286.8,49,281.3z"/>
		<path class="st2" d="M49,444.9v-5c0-5.5,4.5-10,10-10h68c5.5,0,10,4.5,10,10v5c0,5.5-4.5,10-10,10H59
			C53.5,454.9,49,450.4,49,444.9z"/>
		<path class="st0" d="M49,205.8v-5c0-5.5,4.5-10,10-10h68c5.5,0,10,4.5,10,10v5c0,5.5-4.5,10-10,10H59
			C53.5,215.8,49,211.3,49,205.8z"/>
	</g>
</g>
</svg>
