<?xml version="1.0" encoding="utf-8"?>
<!-- Generator: Adobe Illustrator 23.0.3, SVG Export Plug-In . SVG Version: 6.00 Build 0)  -->
<svg version="1.1" id="Layer_1" xmlns:svgjs="http://svgjs.com/svgjs"
	 xmlns="http://www.w3.org/2000/svg" xmlns:xlink="http://www.w3.org/1999/xlink" x="0px" y="0px" viewBox="0 0 512 512"
	 style="enable-background:new 0 0 512 512;" xml:space="preserve">
<style type="text/css">
	.st0{fill:#FFFFFF;}
	.st1{fill:#d9646a;}
	.st2{fill:#28a884;}
</style>
<path class="st0" d="M506,464.8V27.2c0-11-9-20-20-20H26c-11,0-20,9-20,20v437.6c0,10.3,7.9,18.8,17.9,19.9l-2.9,2.9
	c-3.9,3.9-3.9,10.2,0,14.1l3.5,3.5c3.9,3.9,10.2,3.9,14-0.1l20.3-20.3h6.6c0,2.5,1,5,2.9,6.9l3.5,3.5c3.9,3.9,10.3,3.9,14.2,0
	l10.4-10.4h331.3l10.4,10.4c3.8,3.9,10.2,3.9,14.1,0l3.5-3.5c1.9-1.9,2.9-4.4,2.9-6.9h6.6l20.3,20.3c3.8,4,10.1,4,14,0.1l3.5-3.5
	c3.9-3.9,3.9-10.2,0-14.1l-6-6.1C502.4,478,506,471.8,506,464.8z"/>
<path class="st1" d="M474,22.3H364c-11,0-20,9-20,20v410c0,11,9,20,20,20h110c11,0,20-9,20-20v-410C494,31.3,485,22.3,474,22.3z
	 M410.6,271.3c0,11.1-9,20-20,20s-20-9-20-20v-48c0-11,9-20,20-20s20,9,20,20V271.3z"/>
<path class="st2" d="M311,22.3H201c-11,0-20,9-20,20v410c0,11,9,20,20,20h110c11,0,20-9,20-20v-410C331,31.3,322,22.3,311,22.3z
	 M247.6,271.3c0,11.1-9,20-20,20s-20-9-20-20v-48c0-11,9-20,20-20s20,9,20,20V271.3z"/>
<path class="st2" d="M148,84.8H38c-11,0-20-9-20-20V42.3c0-11,9-20,20-20h110c11,0,20,9,20,20v22.5C168,75.9,159,84.8,148,84.8z"/>
<path class="st1" d="M148,159.4H38c-11,0-20-9-20-20v-22.5c0-11,9-20,20-20h110c11,0,20,9,20,20v22.5C168,150.4,159,159.4,148,159.4
	z"/>
<path class="st1" d="M148,246H38c-11,0-20,9-20,20v186.3c0,11,9,20,20,20h110c11,0,20-9,20-20V266C168,255,159,246,148,246z
	 M137,444.9c0,5.5-4.5,10-10,10H59c-5.5,0-10-4.5-10-10v-5c0-5.5,4.5-10,10-10h68c5.5,0,10,4.5,10,10V444.9z M137,281.3
	c0,5.5-4.5,10-10,10H59c-5.5,0-10-4.5-10-10v-5c0-5.5,4.5-10,10-10h68c5.5,0,10,4.5,10,10V281.3z"/>
<path class="st2" d="M148,171.4H38c-11,0-20,9-20,20v22.5c0,11,9,20,20,20h110c11,0,20-8.9,20-20v-22.5
	C168,180.4,159,171.4,148,171.4z M137,205.8c0,5.5-4.5,10-10,10H59c-5.5,0-10-4.5-10-10v-5c0-5.5,4.5-10,10-10h68
	c5.5,0,10,4.5,10,10V205.8z"/>
</svg>
