<?xml version="1.0" encoding="utf-8"?>
<!-- Generator: Adobe Illustrator 23.0.3, SVG Export Plug-In . SVG Version: 6.00 Build 0)  -->
<svg version="1.1" xmlns="http://www.w3.org/2000/svg" xmlns:xlink="http://www.w3.org/1999/xlink" x="0px" y="0px"
	 viewBox="0 0 512 512" style="enable-background:new 0 0 512 512;" xml:space="preserve">
<style type="text/css">
	.st0{fill:#093964;}
	.st1{fill:#78C2AD;}
	.st2{fill:#F3969A;}
	.st3{display:none;}
	.st4{display:inline;}
	.st5{fill:#FBFCFC;}
</style>
<g id="Layer_2">
	<path class="st0" d="M24.5,505.2l-3.5-3.5c-3.9-3.9-3.9-10.2,0-14.1L69,439.4c3.9-3.9,10.2-3.9,14.1,0l3.5,3.5
		c3.9,3.9,3.9,10.2,0,14.1l-48.1,48.1C34.7,509.1,28.4,509.1,24.5,505.2z"/>
	<path class="st0" d="M71.8,495.2l-3.5-3.5c-3.9-3.9-3.9-10.2,0-14.1l48.1-48.1c3.9-3.9,10.2-3.9,14.1,0l3.5,3.5
		c3.9,3.9,3.9,10.2,0,14.1L86,495.2C82.1,499.1,75.7,499.1,71.8,495.2z"/>
	<path class="st0" d="M499.5,505.2l3.5-3.5c3.9-3.9,3.9-10.2,0-14.1L455,439.4c-3.9-3.9-10.2-3.9-14.1,0l-3.5,3.5
		c-3.9,3.9-3.9,10.2,0,14.1l48.1,48.1C489.3,509.1,495.6,509.1,499.5,505.2z"/>
	<path class="st0" d="M452.2,495.2l3.5-3.5c3.9-3.9,3.9-10.2,0-14.1l-48.1-48.1c-3.9-3.9-10.2-3.9-14.1,0l-3.5,3.5
		c-3.9,3.9-3.9,10.2,0,14.1l48.1,48.1C441.9,499.1,448.3,499.1,452.2,495.2z"/>
	<g>
		<path class="st0" d="M486,484.8H26c-11,0-20-9-20-20V27.2c0-11,9-20,20-20h460c11,0,20,9,20,20v437.6
			C506,475.9,497,484.8,486,484.8z"/>
		<g>
			<path class="st1" d="M474,472.3H364c-11,0-20-9-20-20v-410c0-11,9-20,20-20h110c11,0,20,9,20,20v410
				C494,463.3,485,472.3,474,472.3z"/>
			<path class="st0" d="M390.6,291.3L390.6,291.3c-11,0-20-9-20-20v-48c0-11,9-20,20-20h0c11,0,20,9,20,20v48
				C410.6,282.4,401.6,291.3,390.6,291.3z"/>
		</g>
		<g>
			<path class="st2" d="M311,472.3H201c-11,0-20-9-20-20v-410c0-11,9-20,20-20h110c11,0,20,9,20,20v410
				C331,463.3,322,472.3,311,472.3z"/>
			<path class="st0" d="M227.6,291.3L227.6,291.3c-11,0-20-9-20-20v-48c0-11,9-20,20-20h0c11,0,20,9,20,20v48
				C247.6,282.4,238.6,291.3,227.6,291.3z"/>
		</g>
		<g>
			<path class="st2" d="M148,84.8H38c-11,0-20-9-20-20V42.3c0-11,9-20,20-20h110c11,0,20,9,20,20v22.5C168,75.9,159,84.8,148,84.8z"
				/>
			<path class="st1" d="M148,159.4H38c-11,0-20-9-20-20v-22.5c0-11,9-20,20-20h110c11,0,20,9,20,20v22.5
				C168,150.4,159,159.4,148,159.4z"/>
			<path class="st2" d="M148,233.9H38c-11,0-20-9-20-20v-22.5c0-11,9-20,20-20h110c11,0,20,9,20,20v22.5
				C168,225,159,233.9,148,233.9z"/>
			<path class="st1" d="M148,472.3H38c-11,0-20-9-20-20V266c0-11,9-20,20-20h110c11,0,20,9,20,20v186.3
				C168,463.3,159,472.3,148,472.3z"/>
			<path class="st0" d="M49,281.3v-5c0-5.5,4.5-10,10-10h68c5.5,0,10,4.5,10,10v5c0,5.5-4.5,10-10,10H59
				C53.5,291.3,49,286.8,49,281.3z"/>
			<path class="st2" d="M49,444.9v-5c0-5.5,4.5-10,10-10h68c5.5,0,10,4.5,10,10v5c0,5.5-4.5,10-10,10H59
				C53.5,454.9,49,450.4,49,444.9z"/>
			<path class="st0" d="M49,205.8v-5c0-5.5,4.5-10,10-10h68c5.5,0,10,4.5,10,10v5c0,5.5-4.5,10-10,10H59
				C53.5,215.8,49,211.3,49,205.8z"/>
		</g>
	</g>
</g>
<g id="Layer_1" class="st3">
	<g class="st4">
		<path class="st0" d="M103.6,479.4c-2,0-4,0-6.1,0c-4.2-3.2-6.9-7-6.5-12.7c0.3-4.3-0.1-8.7,0.1-13c0.2-3.3-0.7-4.6-4.3-4.4
			c-6.3,0.3-12.7,0.1-19.1,0.1c-8.3-0.1-11.8-3.5-11.8-11.9c0-129.8,0-259.6,0-389.4c0-9.1,3.8-12.8,12.9-12.8
			c125.5,0,250.9,0,376.4,0c9.2,0,13,3.7,13,12.7c0,129.8,0,259.6,0,389.4c0,8.4-3.4,11.9-11.8,12c-7.7,0.1-15.3,0.1-23,0
			c-2.7-0.1-3.5,0.8-3.4,3.4c0.2,4.5-0.1,9,0.1,13.4c0.3,6.3-1.9,10.8-7.8,13.3c-2,0-4,0-6.1,0c-6-4.2-6.6-10.2-6.1-16.8
			c0.2-2.7-0.3-5.5,0.1-8.2c0.6-4.3-1.1-5.1-5.2-5.1c-92.9,0.1-185.7,0.1-278.6,0.1c-0.7,0-1.5,0.1-2.2,0c-2.4-0.3-3.3,0.6-3.3,3.1
			c0.2,4.5-0.1,9,0.1,13.4C111.5,472,109.4,476.7,103.6,479.4z M335.2,242.1c0-60.7,0-121.4,0.1-182.1c0-3.7-0.7-4.9-4.7-4.8
			c-27,0.2-54.1,0.2-81.1,0c-3.7,0-4.5,1.1-4.5,4.6c0.1,121.6,0.1,243.1,0,364.7c0,4.3,1.5,4.9,5.2,4.9c26.6-0.1,53.2-0.2,79.8,0.1
			c4.6,0,5.3-1.4,5.3-5.6C335.2,363.2,335.2,302.7,335.2,242.1z M355.2,242.6c0,60.6,0,121.1-0.1,181.7c0,4,1.1,5.1,5,5
			c24.6-0.2,49.1-0.1,73.7,0c3.2,0,4.5-0.6,4.5-4.3c-0.1-121.9-0.1-243.7,0-365.6c0-3.5-1.1-4.3-4.4-4.3c-24.6,0.1-49.2,0.2-73.7,0
			c-4.3,0-5.2,1.3-5.1,5.3C355.2,121.1,355.2,181.9,355.2,242.6z M225.1,341.8c0-27.6-0.1-55.2,0.1-82.8c0-3.6-0.9-4.7-4.6-4.6
			c-46.7,0.1-93.4,0.1-140.1,0c-3.7,0-4.6,1.2-4.6,4.7c0.1,55.2,0.1,110.4,0,165.7c0,3.6,1.1,4.6,4.6,4.6c46.7-0.1,93.4-0.1,140.1,0
			c3.7,0,4.5-1.2,4.5-4.7C225,397,225.1,369.4,225.1,341.8z M150.9,123.2c23.4,0,46.8-0.1,70.2,0.1c3.2,0,4.1-0.8,4.1-4.1
			c-0.2-20.1-0.1-40.2,0-60.2c0-3-0.7-3.9-3.8-3.8c-47.1,0.1-94.2,0.1-141.3,0c-3.1,0-4.2,0.6-4.2,4c0.2,19.9,0.2,39.9,0,59.8
			c0,3.4,0.9,4.4,4.3,4.4C103.8,123.1,127.4,123.2,150.9,123.2z M150.3,179.2c23.5,0,47.1-0.1,70.6,0.1c3.1,0,4.3-0.6,4.2-4
			c-0.2-9.4-0.2-18.8,0-28.2c0-2.8-0.8-3.8-3.7-3.8c-47.2,0.1-94.5,0.1-141.7,0c-3.2,0-3.9,1.3-3.8,4.1c0.1,9.1,0.2,18.2,0,27.3
			c-0.1,3.6,1,4.6,4.6,4.6C103.8,179.2,127,179.2,150.3,179.2z M150.9,199.2c-23.6,0-47.1,0.1-70.7-0.1c-3.5,0-4.3,1-4.3,4.4
			c0.2,9,0.2,17.9,0,26.9c-0.1,3,0.9,3.9,3.9,3.9c47.1-0.1,94.2-0.1,141.4,0c3.4,0,4-1.1,3.9-4.2c-0.2-9-0.2-17.9,0-26.9
			c0.1-3.2-0.7-4.1-4-4.1C197.7,199.3,174.3,199.2,150.9,199.2z"/>
		<path class="st5" d="M103.6,479.4c5.8-2.7,7.9-7.4,7.6-13.5c-0.2-4.5,0.1-9-0.1-13.4c-0.1-2.5,0.8-3.4,3.3-3.1
			c0.7,0.1,1.4,0,2.2,0c92.9,0,185.7,0,278.6-0.1c4.1,0,5.8,0.8,5.2,5.1c-0.4,2.7,0.1,5.5-0.1,8.2c-0.5,6.6,0.2,12.6,6.1,16.8
			C305.4,479.4,204.5,479.4,103.6,479.4z"/>
		<path class="st1" d="M335.2,242.1c0,60.6,0,121.1,0.1,181.7c0,4.2-0.7,5.6-5.3,5.6c-26.6-0.3-53.2-0.2-79.8-0.1
			c-3.7,0-5.2-0.6-5.2-4.9c0.1-121.6,0.1-243.1,0-364.7c0-3.5,0.7-4.7,4.5-4.6c27,0.2,54.1,0.2,81.1,0c4,0,4.7,1.2,4.7,4.8
			C335.2,120.7,335.2,181.4,335.2,242.1z M271.1,243.4c0-5.6,0.1-11.2,0-16.9c-0.1-6.7-3.8-10.9-9.6-11.1c-6-0.2-10.2,4.1-10.3,10.8
			c-0.2,11.4-0.2,22.8,0,34.2c0.1,6.4,4.4,10.8,10.1,10.7c5.8-0.1,9.7-4.3,9.8-10.9C271.2,254.7,271.1,249,271.1,243.4z"/>
		<path class="st2" d="M355.2,242.6c0-60.7,0-121.4-0.1-182.1c0-4,0.8-5.4,5.1-5.3c24.6,0.2,49.1,0.2,73.7,0c3.3,0,4.4,0.8,4.4,4.3
			c-0.1,121.9-0.1,243.7,0,365.6c0,3.6-1.3,4.3-4.5,4.3c-24.6-0.1-49.2-0.1-73.7,0c-4,0-5-1.1-5-5
			C355.2,363.7,355.2,303.1,355.2,242.6z M382.1,243c0-5.2,0-10.4,0-15.6c0-0.3,0-0.6,0-0.9c-0.2-6.7-3.9-10.9-9.7-11
			c-5.9-0.1-10.1,4-10.2,10.5c-0.2,11.6-0.2,23.1,0,34.7c0.1,6.2,4.4,10.4,9.9,10.4c5.8,0,9.8-4.3,9.9-10.8
			C382.2,254.6,382.1,248.8,382.1,243z"/>
		<path class="st2" d="M225.1,341.8c0,27.6-0.1,55.2,0.1,82.8c0,3.5-0.8,4.7-4.5,4.7c-46.7-0.1-93.4-0.1-140.1,0
			c-3.6,0-4.6-1-4.6-4.6c0.1-55.2,0.1-110.4,0-165.7c0-3.5,0.9-4.7,4.6-4.7c46.7,0.1,93.4,0.1,140.1,0c3.6,0,4.6,1.1,4.6,4.6
			C225,286.6,225.1,314.2,225.1,341.8z M152.6,287.4c4.6-0.3,11.1,0.7,17.6-0.4c5.4-0.9,8.8-4.7,8.9-9.6c0.1-5-3.5-9.5-9.1-9.8
			c-13.1-0.8-26.3-0.8-39.4,0c-2.6,0.2-4.6,1.6-6.2,3.6c-2.5,3.1-2.8,6.7-1.3,10.2c1.8,4.2,5.5,5.8,9.8,5.9
			C138.9,287.5,144.8,287.4,152.6,287.4z"/>
		<path class="st1" d="M150.9,123.2c-23.5,0-47.1-0.1-70.6,0.1c-3.4,0-4.4-0.9-4.3-4.4c0.2-19.9,0.2-39.9,0-59.8c0-3.4,1-4,4.2-4
			c47.1,0.1,94.2,0.1,141.3,0c3.1,0,3.8,0.8,3.8,3.8c-0.1,20.1-0.1,40.2,0,60.2c0,3.2-0.8,4.1-4.1,4.1
			C197.7,123.1,174.3,123.2,150.9,123.2z"/>
		<path class="st2" d="M150.3,179.2c-23.3,0-46.5-0.1-69.8,0.1c-3.6,0-4.7-1-4.6-4.6c0.2-9.1,0.2-18.2,0-27.3c0-2.9,0.6-4.1,3.8-4.1
			c47.2,0.1,94.5,0.1,141.7,0c2.9,0,3.7,1,3.7,3.8c-0.1,9.4-0.2,18.8,0,28.2c0.1,3.4-1.1,4-4.2,4
			C197.4,179.2,173.8,179.2,150.3,179.2z"/>
		<path class="st1" d="M150.9,199.2c23.4,0,46.8,0.1,70.2-0.1c3.3,0,4.1,0.9,4,4.1c-0.2,9-0.2,17.9,0,26.9c0.1,3.1-0.5,4.2-3.9,4.2
			c-47.1-0.1-94.2-0.1-141.4,0c-3,0-4-0.9-3.9-3.9c0.2-9,0.2-17.9,0-26.9c-0.1-3.3,0.8-4.4,4.3-4.4
			C103.8,199.3,127.3,199.2,150.9,199.2z"/>
		<path class="st0" d="M271.1,243.4c0,5.6,0.1,11.2,0,16.9c-0.1,6.6-4.1,10.9-9.8,10.9c-5.6,0.1-10-4.3-10.1-10.7
			c-0.2-11.4-0.2-22.8,0-34.2c0.1-6.8,4.3-11,10.3-10.8c5.8,0.2,9.5,4.3,9.6,11.1C271.2,232.2,271.1,237.8,271.1,243.4z"/>
		<path class="st0" d="M382.1,243c0,5.8,0.1,11.6,0,17.3c-0.1,6.6-4.1,10.9-9.9,10.8c-5.5,0-9.8-4.2-9.9-10.4
			c-0.2-11.6-0.2-23.1,0-34.7c0.1-6.6,4.3-10.7,10.2-10.5c5.8,0.1,9.5,4.3,9.7,11c0,0.3,0,0.6,0,0.9
			C382.1,232.6,382.1,237.8,382.1,243z"/>
		<path class="st0" d="M152.6,287.4c-7.8,0-13.8,0.1-19.7,0c-4.3-0.1-8-1.8-9.8-5.9c-1.5-3.5-1.2-7.1,1.3-10.2
			c1.6-2,3.6-3.4,6.2-3.6c13.1-0.8,26.3-0.8,39.4,0c5.6,0.3,9.1,4.8,9.1,9.8c-0.1,4.9-3.5,8.7-8.9,9.6
			C163.7,288,157.2,287.1,152.6,287.4z"/>
	</g>
</g>
</svg>
