<?xml version="1.0" encoding="utf-8"?>
<!-- Generator: Adobe Illustrator 23.0.3, SVG Export Plug-In . SVG Version: 6.00 Build 0)  -->
<svg version="1.1" id="Vector_Graphics" xmlns="http://www.w3.org/2000/svg" xmlns:xlink="http://www.w3.org/1999/xlink" x="0px"
	 y="0px" viewBox="0 0 500 481.9" style="enable-background:new 0 0 500 481.9;" xml:space="preserve">
<style type="text/css">
	.st0{opacity:0.25;fill:#78C2AD;}
</style>
<path class="st0" d="M454.1,45.2v81.5c15.7,21.2,28.5,45.3,37.5,70.5c3.4,9.6,6.2,19.2,8.4,28.8v44.5v19.2
	c-147.5,0-217.3,110.1-233,192.2h-14.4H233c-15.7-82.2-85.5-192.2-233-192.2v-19.2V226c2.2-9.5,5-19.2,8.4-28.8
	c9-25.2,21.8-49.3,37.5-70.5V45.2c0-15.8-13-44-45.9-44v0h46.6c1.2,1.3,2.5,2.6,3.6,4c9.3,11.5,14.9,26.5,14.9,40.1v58.5
	c7.3-7.8,15-15,23.2-21.7V41.9c0-11.5-3.6-26.5-11.6-40.7h8.7C93,16.1,96,31.1,96,41.9v34.2c11.6-8.7,23.9-16.4,36.9-22.8
	c1.7-0.8,3.4-1.5,5-2.3v-11c0-11.3-2.3-24.8-7-38.7h12.1c4.5,14.4,6.4,27.9,6.4,38.7v6c6.8-2.7,13.7-5.2,20.8-7.3v-4
	c0-10-1.5-21.4-4.4-33.4h11.8c2.8,12.3,4.1,23.8,4.1,33.4v0.8c17.4-4.4,35.5-7,54.5-7.9c-0.4-8.3-1.5-17.2-3.3-26.4h19.6H267
	c-1.8,9.2-2.9,18.1-3.3,26.4c18.9,0.8,37.1,3.5,54.5,7.9v-0.8c0-9.7,1.3-21.1,4.1-33.4h11.8c-3,12-4.4,23.4-4.4,33.4v4
	c7.1,2.1,14,4.6,20.8,7.3v-6c0-10.8,1.9-24.3,6.4-38.7H369c-4.7,13.9-7,27.4-7,38.7v11c1.7,0.8,3.4,1.5,5,2.3
	c13,6.5,25.3,14.1,36.9,22.8V41.9c0-10.8,3-25.8,10.5-40.7h8.7c-7.9,14.2-11.6,29.2-11.6,40.7v40.2c8.1,6.6,15.8,13.9,23.2,21.7
	V45.2c0-13.6,5.6-28.6,14.9-40.1c1.1-1.4,2.4-2.7,3.6-4H500v0C467.1,1.2,454.1,29.4,454.1,45.2z M295.9,282.7c0-15.8-13-44-45.9-44
	c-32.9,0-45.9,28.3-45.9,44v87.2c15.7,21.2,28.5,45.3,37.5,70.5c3.4,9.6,6.2,19.2,8.4,28.8c2.2-9.5,5-19.2,8.4-28.8
	c9-25.2,21.8-49.3,37.5-70.5V282.7z M338.3,279.4c0-30.3-24.9-84.7-88.3-84.7c-63.3,0-88.3,54.4-88.3,84.7v46
	c8.1,6.6,15.8,13.9,23.2,21.7v-64.3c0-13.6,5.6-28.6,14.9-40.1c12.2-15,30-23.2,50.2-23.2c20.2,0,38,8.2,50.2,23.2
	c9.3,11.5,14.9,26.5,14.9,40.1V347c7.3-7.8,15-15,23.2-21.7V279.4z M388,277.4c0-47.4-39-132.3-138-132.3c-99,0-138,85-138,132.3
	v16.8c1.7,0.8,3.4,1.5,5,2.3c13,6.5,25.3,14.1,36.9,22.8v-40c0-15.2,5.8-38.6,22.1-58.6c12.6-15.4,35.6-33.8,73.9-33.8
	c38.3,0,61.3,18.4,73.9,33.8c16.3,20,22.1,43.4,22.1,58.6v40c11.6-8.7,23.9-16.4,36.9-22.8c1.7-0.8,3.4-1.5,5-2.3V277.4z
	 M420.3,272.1c0-58.5-48.1-163.4-170.3-163.4c-122.2,0-170.3,104.9-170.3,163.4v9.7c7.1,2.1,14,4.6,20.8,7.3v-11.8
	c0-23.6,9.1-60,34.5-91.2c19.6-24,55.4-52.7,115-52.7c59.6,0,95.5,28.6,115,52.7c25.4,31.2,34.5,67.6,34.5,91.2v11.8
	c6.8-2.7,13.7-5.2,20.8-7.3V272.1z M250,46.4C82,46.4,14.9,189.1,13.5,270.8c19,0.8,37.2,3.5,54.6,7.9v-6.6c0-28.7,11-73,41.9-110.9
	c23.8-29.2,67.3-64,139.9-64c72.6,0,116.1,34.8,139.9,64c30.9,38,41.9,82.2,41.9,110.9v6.6c17.4-4.4,35.7-7,54.6-7.9
	C485.1,189.1,418,46.4,250,46.4z M500,340.5V352c-101.2,0-151.6,72-165.9,129.9h-11.8c5.6-24.3,17.3-52.3,37.8-77.5
	C383.9,375.3,427.4,340.5,500,340.5z M500,376.8v11.5c-75.3,0-115.9,49.2-131,93.6h-12.1c5.3-17.1,14.3-35.6,28-52.5
	C404.5,405.4,440.4,376.8,500,376.8z M500,430.2v7.7c-39.3,0-63.8,20.9-76.7,44h-8.7c3.1-6.1,6.9-12.1,11.6-17.9
	C438.7,448.6,461.7,430.2,500,430.2z M453.4,481.9c12-12.4,28.3-19.2,46.6-19.2v19.2H453.4z M139.9,404.5
	c20.5,25.2,32.2,53.1,37.8,77.5h-11.8C151.6,424,101.2,352,0,352v-11.5C72.6,340.5,116.1,375.3,139.9,404.5z M115,429.5
	c13.8,16.9,22.7,35.4,28,52.5H131c-15.1-44.4-55.6-93.6-131-93.6v-11.5C59.6,376.8,95.5,405.4,115,429.5z M73.9,464.1
	c4.7,5.8,8.5,11.8,11.6,17.9h-8.7c-13-23.1-37.5-44-76.7-44v-7.7C38.3,430.2,61.3,448.6,73.9,464.1z M0,462.7
	c18.3,0,34.6,6.8,46.6,19.2H0V462.7z"/>
</svg>
